<?xml version="1.0" encoding="UTF-8" standalone="no"?>
<!DOCTYPE svg PUBLIC "-//W3C//DTD SVG 1.1//EN"
 "http://www.w3.org/Graphics/SVG/1.1/DTD/svg11.dtd">
<!-- Generated by graphviz version 2.26.3 (20100126.1600)
 -->
<!-- Title: G Pages: 1 -->
<svg width="688pt" height="782pt"
 viewBox="0.00 0.00 688.00 782.00" xmlns="http://www.w3.org/2000/svg" xmlns:xlink="http://www.w3.org/1999/xlink">
<g id="graph1" class="graph" transform="scale(1 1) rotate(0) translate(4 778)">
<title>G</title>
<polygon fill="white" stroke="white" points="-4,5 -4,-778 685,-778 685,5 -4,5"/>
<g id="graph2" class="cluster"><title>cluster_global</title>
<polyline fill="none" stroke="gray" points="257,-206 660,-206 "/>
<path fill="none" stroke="gray" d="M660,-206C666,-206 672,-212 672,-218"/>
<polyline fill="none" stroke="gray" points="672,-218 672,-754 "/>
<path fill="none" stroke="gray" d="M672,-754C672,-760 666,-766 660,-766"/>
<polyline fill="none" stroke="gray" points="660,-766 257,-766 "/>
<path fill="none" stroke="gray" d="M257,-766C251,-766 245,-760 245,-754"/>
<polyline fill="none" stroke="gray" points="245,-754 245,-218 "/>
<path fill="none" stroke="gray" d="M245,-218C245,-212 251,-206 257,-206"/>
<text text-anchor="middle" x="458.5" y="-752.1" font-family="Times Roman,serif" font-size="11.00" fill="gray">global</text>
</g>
<!-- \\NoVertexException -->
<g id="node2" class="node"><title>\\NoVertexException</title>
<a xlink:href="Exceptions.Exceptions.html" xlink:title="NoVertexException" target="_parent">
<polygon fill="none" stroke="black" points="646,-736 516,-736 516,-700 646,-700 646,-736"/>
<text text-anchor="middle" x="581" y="-715.1" font-family="Courier,monospace" font-size="11.00">NoVertexException</text>
</a>
</g>
<!-- \\PGraphException -->
<g id="node9" class="node"><title>\\PGraphException</title>
<a xlink:href="Exceptions.PGraphException.html" xlink:title="PGraphException" target="_parent">
<polygon fill="none" stroke="black" points="371,-574 253,-574 253,-538 371,-538 371,-574"/>
<text text-anchor="middle" x="312" y="-553.1" font-family="Courier,monospace" font-size="11.00">PGraphException</text>
</a>
</g>
<!-- \\NoVertexException&#45;&gt;\\PGraphException -->
<g id="edge3" class="edge"><title>\\NoVertexException&#45;&gt;\\PGraphException</title>
<path fill="none" stroke="black" d="M518.055,-699.86C511.159,-697.189 504.346,-694.233 498,-691 437.438,-660.147 375.118,-610.58 340.195,-580.865"/>
<polygon fill="none" stroke="black" points="342.206,-577.979 332.339,-574.121 337.647,-583.29 342.206,-577.979"/>
</g>
<!-- \\NoEdgeException -->
<g id="node3" class="node"><title>\\NoEdgeException</title>
<a xlink:href="Exceptions.Exceptions.html" xlink:title="NoEdgeException" target="_parent">
<polygon fill="none" stroke="black" points="640,-682 522,-682 522,-646 640,-646 640,-682"/>
<text text-anchor="middle" x="581" y="-661.1" font-family="Courier,monospace" font-size="11.00">NoEdgeException</text>
</a>
</g>
<!-- \\NoEdgeException&#45;&gt;\\PGraphException -->
<g id="edge5" class="edge"><title>\\NoEdgeException&#45;&gt;\\PGraphException</title>
<path fill="none" stroke="black" d="M523.151,-645.974C514.67,-643.102 506.076,-640.064 498,-637 450.186,-618.86 396.777,-595.241 359.5,-578.193"/>
<polygon fill="none" stroke="black" points="360.932,-574.999 350.384,-574.008 358.011,-581.361 360.932,-574.999"/>
</g>
<!-- \\EdgeExistsException -->
<g id="node4" class="node"><title>\\EdgeExistsException</title>
<a xlink:href="Exceptions.Exceptions.html" xlink:title="EdgeExistsException" target="_parent">
<polygon fill="none" stroke="black" points="653,-628 509,-628 509,-592 653,-592 653,-628"/>
<text text-anchor="middle" x="581" y="-607.1" font-family="Courier,monospace" font-size="11.00">EdgeExistsException</text>
</a>
</g>
<!-- \\EdgeExistsException&#45;&gt;\\PGraphException -->
<g id="edge7" class="edge"><title>\\EdgeExistsException&#45;&gt;\\PGraphException</title>
<path fill="none" stroke="black" d="M508.205,-595.387C468.783,-587.473 420.332,-577.747 381.441,-569.94"/>
<polygon fill="none" stroke="black" points="381.75,-566.432 371.257,-567.895 380.372,-573.295 381.75,-566.432"/>
</g>
<!-- \\VertexExistsException -->
<g id="node5" class="node"><title>\\VertexExistsException</title>
<a xlink:href="Exceptions.Exceptions.html" xlink:title="VertexExistsException" target="_parent">
<polygon fill="none" stroke="black" points="660,-574 502,-574 502,-538 660,-538 660,-574"/>
<text text-anchor="middle" x="581" y="-553.1" font-family="Courier,monospace" font-size="11.00">VertexExistsException</text>
</a>
</g>
<!-- \\VertexExistsException&#45;&gt;\\PGraphException -->
<g id="edge9" class="edge"><title>\\VertexExistsException&#45;&gt;\\PGraphException</title>
<path fill="none" stroke="black" d="M501.746,-556C463.498,-556 418.036,-556 381.201,-556"/>
<polygon fill="none" stroke="black" points="381.054,-552.5 371.054,-556 381.054,-559.5 381.054,-552.5"/>
</g>
<!-- \\NoPathException -->
<g id="node6" class="node"><title>\\NoPathException</title>
<a xlink:href="Exceptions.Exceptions.html" xlink:title="NoPathException" target="_parent">
<polygon fill="none" stroke="black" points="640,-520 522,-520 522,-484 640,-484 640,-520"/>
<text text-anchor="middle" x="581" y="-499.1" font-family="Courier,monospace" font-size="11.00">NoPathException</text>
</a>
</g>
<!-- \\NoPathException&#45;&gt;\\PGraphException -->
<g id="edge11" class="edge"><title>\\NoPathException&#45;&gt;\\PGraphException</title>
<path fill="none" stroke="black" d="M521.786,-514.412C492.911,-520.417 457.661,-527.677 426,-534 411.546,-536.887 396.047,-539.919 381.281,-542.779"/>
<polygon fill="none" stroke="black" points="380.351,-539.394 371.197,-544.727 381.679,-546.267 380.351,-539.394"/>
</g>
<!-- \\InvalidTypeException -->
<g id="node7" class="node"><title>\\InvalidTypeException</title>
<a xlink:href="Exceptions.Exceptions.html" xlink:title="InvalidTypeException" target="_parent">
<polygon fill="none" stroke="black" points="657,-466 505,-466 505,-430 657,-430 657,-466"/>
<text text-anchor="middle" x="581" y="-445.1" font-family="Courier,monospace" font-size="11.00">InvalidTypeException</text>
</a>
</g>
<!-- \\InvalidTypeException&#45;&gt;\\PGraphException -->
<g id="edge13" class="edge"><title>\\InvalidTypeException&#45;&gt;\\PGraphException</title>
<path fill="none" stroke="black" d="M516.985,-466.122C510.426,-468.772 503.982,-471.728 498,-475 461.703,-494.853 463.456,-516.432 426,-534 412.078,-540.53 396.329,-545.122 381.08,-548.35"/>
<polygon fill="none" stroke="black" points="380.302,-544.936 371.155,-550.282 381.639,-551.807 380.302,-544.936"/>
</g>
<!-- \\NegativeCycleException -->
<g id="node8" class="node"><title>\\NegativeCycleException</title>
<a xlink:href="Exceptions.Exceptions.html" xlink:title="NegativeCycleException" target="_parent">
<polygon fill="none" stroke="black" points="663,-412 499,-412 499,-376 663,-376 663,-412"/>
<text text-anchor="middle" x="581" y="-391.1" font-family="Courier,monospace" font-size="11.00">NegativeCycleException</text>
</a>
</g>
<!-- \\NegativeCycleException&#45;&gt;\\PGraphException -->
<g id="edge15" class="edge"><title>\\NegativeCycleException&#45;&gt;\\PGraphException</title>
<path fill="none" stroke="black" d="M512.018,-412.148C507.054,-414.725 502.313,-417.66 498,-421 450.919,-457.464 475.248,-500.52 426,-534 412.873,-542.924 397.034,-548.44 381.395,-551.8"/>
<polygon fill="none" stroke="black" points="380.363,-548.432 371.177,-553.71 381.649,-555.313 380.363,-548.432"/>
</g>
<!-- \\Exception -->
<g id="node21" class="node"><title>\\Exception</title>
<ellipse fill="none" stroke="black" cx="63" cy="-556" rx="62.9325" ry="18.3848"/>
<text text-anchor="middle" x="63" y="-552.4" font-family="Times Roman,serif" font-size="14.00" fill="gray">\Exception</text>
</g>
<!-- \\PGraphException&#45;&gt;\\Exception -->
<g id="edge17" class="edge"><title>\\PGraphException&#45;&gt;\\Exception</title>
<path fill="none" stroke="black" d="M252.99,-556C218.155,-556 173.757,-556 136.641,-556"/>
<polygon fill="none" stroke="black" points="136.379,-552.5 126.379,-556 136.379,-559.5 136.379,-552.5"/>
</g>
<!-- \\PGraph -->
<g id="node10" class="node"><title>\\PGraph</title>
<a xlink:href="PGraph.html" xlink:title="PGraph" target="_parent">
<polygon fill="none" stroke="black" points="609,-358 553,-358 553,-322 609,-322 609,-358"/>
<text text-anchor="middle" x="581" y="-337.1" font-family="Courier,monospace" font-size="11.00">PGraph</text>
</a>
</g>
<!-- \\Iterator -->
<g id="node25" class="node"><title>\\Iterator</title>
<ellipse fill="none" stroke="black" cx="312" cy="-180" rx="55.8614" ry="18.3848"/>
<text text-anchor="middle" x="312" y="-176.4" font-family="Times Roman,serif" font-size="14.00" fill="gray">\\Iterator</text>
</g>
<!-- \\PGraph&#45;&gt;\\Iterator -->
<g id="edge21" class="edge"><title>\\PGraph&#45;&gt;\\Iterator</title>
<path fill="none" stroke="black" stroke-dasharray="1,5" d="M552.219,-335.623C535.108,-331.878 513.743,-325.091 498,-313 451.364,-277.183 474.763,-234.862 426,-202 411.95,-192.531 394.836,-186.909 378.186,-183.628"/>
<polygon fill="none" stroke="black" points="378.356,-180.106 367.91,-181.874 377.178,-187.006 378.356,-180.106"/>
</g>
<!-- \\ArrayAccess -->
<g id="node27" class="node"><title>\\ArrayAccess</title>
<ellipse fill="none" stroke="black" cx="312" cy="-126" rx="77.0746" ry="18.3848"/>
<text text-anchor="middle" x="312" y="-122.4" font-family="Times Roman,serif" font-size="14.00" fill="gray">\\ArrayAccess</text>
</g>
<!-- \\PGraph&#45;&gt;\\ArrayAccess -->
<g id="edge23" class="edge"><title>\\PGraph&#45;&gt;\\ArrayAccess</title>
<path fill="none" stroke="black" stroke-dasharray="1,5" d="M552.32,-336.611C534.818,-333.22 513.001,-326.458 498,-313 439.955,-260.927 486.129,-202.652 426,-153 416.627,-145.26 405.417,-139.662 393.738,-135.629"/>
<polygon fill="none" stroke="black" points="394.435,-132.182 383.848,-132.595 392.383,-138.874 394.435,-132.182"/>
</g>
<!-- \\Countable -->
<g id="node29" class="node"><title>\\Countable</title>
<ellipse fill="none" stroke="black" cx="312" cy="-72" rx="67.8823" ry="18.3848"/>
<text text-anchor="middle" x="312" y="-68.4" font-family="Times Roman,serif" font-size="14.00" fill="gray">\\Countable</text>
</g>
<!-- \\PGraph&#45;&gt;\\Countable -->
<g id="edge25" class="edge"><title>\\PGraph&#45;&gt;\\Countable</title>
<path fill="none" stroke="black" stroke-dasharray="1,5" d="M552.247,-337.182C534.494,-334.013 512.43,-327.285 498,-313 426.686,-242.399 500.146,-166.62 426,-99 415.377,-89.3119 401.929,-82.9155 388.025,-78.7315"/>
<polygon fill="none" stroke="black" points="388.919,-75.3476 378.356,-76.1751 387.13,-82.115 388.919,-75.3476"/>
</g>
<!-- \\PGraphVertex -->
<g id="node11" class="node"><title>\\PGraphVertex</title>
<a xlink:href="PGraphVertex.html" xlink:title="PGraphVertex" target="_parent">
<polygon fill="none" stroke="black" points="630,-304 532,-304 532,-268 630,-268 630,-304"/>
<text text-anchor="middle" x="581" y="-283.1" font-family="Courier,monospace" font-size="11.00">PGraphVertex</text>
</a>
</g>
<!-- \\PGraphLinkedList -->
<g id="node12" class="node"><title>\\PGraphLinkedList</title>
<a xlink:href="PGraphLinkedList.html" xlink:title="PGraphLinkedList" target="_parent">
<polygon fill="none" stroke="black" points="643,-250 519,-250 519,-214 643,-214 643,-250"/>
<text text-anchor="middle" x="581" y="-229.1" font-family="Courier,monospace" font-size="11.00">PGraphLinkedList</text>
</a>
</g>
<!-- \\SplDoublyLinkedList -->
<g id="node23" class="node"><title>\\SplDoublyLinkedList</title>
<ellipse fill="none" stroke="black" cx="312" cy="-18" rx="113.844" ry="18.3848"/>
<text text-anchor="middle" x="312" y="-14.4" font-family="Times Roman,serif" font-size="14.00" fill="gray">\SplDoublyLinkedList</text>
</g>
<!-- \\PGraphLinkedList&#45;&gt;\\SplDoublyLinkedList -->
<g id="edge19" class="edge"><title>\\PGraphLinkedList&#45;&gt;\\SplDoublyLinkedList</title>
<path fill="none" stroke="black" d="M571.342,-213.763C550.318,-175.935 496.574,-88.8177 426,-45 419.059,-40.6906 411.49,-37.0688 403.66,-34.025"/>
<polygon fill="none" stroke="black" points="404.6,-30.6445 394.005,-30.5914 402.254,-37.2399 404.6,-30.6445"/>
</g>
</g>
</svg>
