<?xml version="1.0" encoding="UTF-8" standalone="no"?>
<!DOCTYPE svg PUBLIC "-//W3C//DTD SVG 1.1//EN"
 "http://www.w3.org/Graphics/SVG/1.1/DTD/svg11.dtd">
<!-- Generated by graphviz version 2.26.3 (20100126.1600)
 -->
<!-- Title: G Pages: 1 -->
<svg width="728pt" height="782pt"
 viewBox="0.00 0.00 728.00 782.00" xmlns="http://www.w3.org/2000/svg" xmlns:xlink="http://www.w3.org/1999/xlink">
<g id="graph1" class="graph" transform="scale(1 1) rotate(0) translate(4 778)">
<title>G</title>
<polygon fill="white" stroke="white" points="-4,5 -4,-778 725,-778 725,5 -4,5"/>
<g id="graph2" class="cluster"><title>cluster_global</title>
<polyline fill="none" stroke="gray" points="257,-206 700,-206 "/>
<path fill="none" stroke="gray" d="M700,-206C706,-206 712,-212 712,-218"/>
<polyline fill="none" stroke="gray" points="712,-218 712,-754 "/>
<path fill="none" stroke="gray" d="M712,-754C712,-760 706,-766 700,-766"/>
<polyline fill="none" stroke="gray" points="700,-766 257,-766 "/>
<path fill="none" stroke="gray" d="M257,-766C251,-766 245,-760 245,-754"/>
<polyline fill="none" stroke="gray" points="245,-754 245,-218 "/>
<path fill="none" stroke="gray" d="M245,-218C245,-212 251,-206 257,-206"/>
<text text-anchor="middle" x="478.5" y="-752.1" font-family="Times Roman,serif" font-size="11.00" fill="gray">global</text>
</g>
<!-- \\PGraphNoVertexException -->
<g id="node2" class="node"><title>\\PGraphNoVertexException</title>
<a xlink:href="Exceptions.Exceptions.html" xlink:title="PGraphNoVertexException" target="_parent">
<polygon fill="none" stroke="black" points="687,-736 515,-736 515,-700 687,-700 687,-736"/>
<text text-anchor="middle" x="601" y="-715.1" font-family="Courier,monospace" font-size="11.00">PGraphNoVertexException</text>
</a>
</g>
<!-- \\PGraphException -->
<g id="node9" class="node"><title>\\PGraphException</title>
<a xlink:href="Exceptions.PGraphException.html" xlink:title="PGraphException" target="_parent">
<polygon fill="none" stroke="black" points="371,-574 253,-574 253,-538 371,-538 371,-574"/>
<text text-anchor="middle" x="312" y="-553.1" font-family="Courier,monospace" font-size="11.00">PGraphException</text>
</a>
</g>
<!-- \\PGraphNoVertexException&#45;&gt;\\PGraphException -->
<g id="edge3" class="edge"><title>\\PGraphNoVertexException&#45;&gt;\\PGraphException</title>
<path fill="none" stroke="black" d="M520.391,-699.999C512.683,-697.351 505.101,-694.361 498,-691 436.233,-661.762 373.861,-611.221 339.34,-580.968"/>
<polygon fill="none" stroke="black" points="341.396,-578.114 331.589,-574.105 336.755,-583.355 341.396,-578.114"/>
</g>
<!-- \\PGraphNoEdgeException -->
<g id="node3" class="node"><title>\\PGraphNoEdgeException</title>
<a xlink:href="Exceptions.Exceptions.html" xlink:title="PGraphNoEdgeException" target="_parent">
<polygon fill="none" stroke="black" points="680,-682 522,-682 522,-646 680,-646 680,-682"/>
<text text-anchor="middle" x="601" y="-661.1" font-family="Courier,monospace" font-size="11.00">PGraphNoEdgeException</text>
</a>
</g>
<!-- \\PGraphNoEdgeException&#45;&gt;\\PGraphException -->
<g id="edge5" class="edge"><title>\\PGraphNoEdgeException&#45;&gt;\\PGraphException</title>
<path fill="none" stroke="black" d="M526.603,-645.964C516.911,-643.187 507.17,-640.177 498,-637 449.066,-620.045 394.983,-595.845 357.809,-578.316"/>
<polygon fill="none" stroke="black" points="359.271,-575.135 348.735,-574.011 356.27,-581.46 359.271,-575.135"/>
</g>
<!-- \\PGraphEdgeExistsException -->
<g id="node4" class="node"><title>\\PGraphEdgeExistsException</title>
<a xlink:href="Exceptions.Exceptions.html" xlink:title="PGraphEdgeExistsException" target="_parent">
<polygon fill="none" stroke="black" points="693,-628 509,-628 509,-592 693,-592 693,-628"/>
<text text-anchor="middle" x="601" y="-607.1" font-family="Courier,monospace" font-size="11.00">PGraphEdgeExistsException</text>
</a>
</g>
<!-- \\PGraphEdgeExistsException&#45;&gt;\\PGraphException -->
<g id="edge7" class="edge"><title>\\PGraphEdgeExistsException&#45;&gt;\\PGraphException</title>
<path fill="none" stroke="black" d="M508.366,-592.691C467.143,-584.989 419.426,-576.073 381.353,-568.959"/>
<polygon fill="none" stroke="black" points="381.861,-565.493 371.388,-567.097 380.575,-572.374 381.861,-565.493"/>
</g>
<!-- \\PGraphVertexExistsException -->
<g id="node5" class="node"><title>\\PGraphVertexExistsException</title>
<a xlink:href="Exceptions.Exceptions.html" xlink:title="PGraphVertexExistsException" target="_parent">
<polygon fill="none" stroke="black" points="700,-574 502,-574 502,-538 700,-538 700,-574"/>
<text text-anchor="middle" x="601" y="-553.1" font-family="Courier,monospace" font-size="11.00">PGraphVertexExistsException</text>
</a>
</g>
<!-- \\PGraphVertexExistsException&#45;&gt;\\PGraphException -->
<g id="edge9" class="edge"><title>\\PGraphVertexExistsException&#45;&gt;\\PGraphException</title>
<path fill="none" stroke="black" d="M501.138,-556C461.787,-556 417.538,-556 381.739,-556"/>
<polygon fill="none" stroke="black" points="381.397,-552.5 371.397,-556 381.397,-559.5 381.397,-552.5"/>
</g>
<!-- \\PGraphNoPathException -->
<g id="node6" class="node"><title>\\PGraphNoPathException</title>
<a xlink:href="Exceptions.Exceptions.html" xlink:title="PGraphNoPathException" target="_parent">
<polygon fill="none" stroke="black" points="680,-520 522,-520 522,-484 680,-484 680,-520"/>
<text text-anchor="middle" x="601" y="-499.1" font-family="Courier,monospace" font-size="11.00">PGraphNoPathException</text>
</a>
</g>
<!-- \\PGraphNoPathException&#45;&gt;\\PGraphException -->
<g id="edge11" class="edge"><title>\\PGraphNoPathException&#45;&gt;\\PGraphException</title>
<path fill="none" stroke="black" d="M521.647,-516.827C477.558,-525.065 423.235,-535.216 380.935,-543.12"/>
<polygon fill="none" stroke="black" points="380.191,-539.698 371.004,-544.975 381.477,-546.579 380.191,-539.698"/>
</g>
<!-- \\PGraphInvalidTypeException -->
<g id="node7" class="node"><title>\\PGraphInvalidTypeException</title>
<a xlink:href="Exceptions.Exceptions.html" xlink:title="PGraphInvalidTypeException" target="_parent">
<polygon fill="none" stroke="black" points="697,-466 505,-466 505,-430 697,-430 697,-466"/>
<text text-anchor="middle" x="601" y="-445.1" font-family="Courier,monospace" font-size="11.00">PGraphInvalidTypeException</text>
</a>
</g>
<!-- \\PGraphInvalidTypeException&#45;&gt;\\PGraphException -->
<g id="edge13" class="edge"><title>\\PGraphInvalidTypeException&#45;&gt;\\PGraphException</title>
<path fill="none" stroke="black" d="M518.828,-466.056C511.632,-468.674 504.588,-471.642 498,-475 461.141,-493.789 463.456,-516.432 426,-534 412.078,-540.53 396.329,-545.122 381.08,-548.35"/>
<polygon fill="none" stroke="black" points="380.302,-544.936 371.155,-550.282 381.639,-551.807 380.302,-544.936"/>
</g>
<!-- \\PGraphNegativeCycleException -->
<g id="node8" class="node"><title>\\PGraphNegativeCycleException</title>
<a xlink:href="Exceptions.Exceptions.html" xlink:title="PGraphNegativeCycleException" target="_parent">
<polygon fill="none" stroke="black" points="704,-412 498,-412 498,-376 704,-376 704,-412"/>
<text text-anchor="middle" x="601" y="-391.1" font-family="Courier,monospace" font-size="11.00">PGraphNegativeCycleException</text>
</a>
</g>
<!-- \\PGraphNegativeCycleException&#45;&gt;\\PGraphException -->
<g id="edge15" class="edge"><title>\\PGraphNegativeCycleException&#45;&gt;\\PGraphException</title>
<path fill="none" stroke="black" d="M512.897,-412.085C507.65,-414.67 502.631,-417.624 498,-421 449.879,-456.081 475.248,-500.52 426,-534 412.873,-542.924 397.034,-548.44 381.395,-551.8"/>
<polygon fill="none" stroke="black" points="380.363,-548.432 371.177,-553.71 381.649,-555.313 380.363,-548.432"/>
</g>
<!-- \\Exception -->
<g id="node21" class="node"><title>\\Exception</title>
<ellipse fill="none" stroke="black" cx="63" cy="-556" rx="62.9325" ry="18.3848"/>
<text text-anchor="middle" x="63" y="-552.4" font-family="Times Roman,serif" font-size="14.00" fill="gray">\Exception</text>
</g>
<!-- \\PGraphException&#45;&gt;\\Exception -->
<g id="edge17" class="edge"><title>\\PGraphException&#45;&gt;\\Exception</title>
<path fill="none" stroke="black" d="M252.99,-556C218.155,-556 173.757,-556 136.641,-556"/>
<polygon fill="none" stroke="black" points="136.379,-552.5 126.379,-556 136.379,-559.5 136.379,-552.5"/>
</g>
<!-- \\PGraph -->
<g id="node10" class="node"><title>\\PGraph</title>
<a xlink:href="PGraph.html" xlink:title="PGraph" target="_parent">
<polygon fill="none" stroke="black" points="629,-358 573,-358 573,-322 629,-322 629,-358"/>
<text text-anchor="middle" x="601" y="-337.1" font-family="Courier,monospace" font-size="11.00">PGraph</text>
</a>
</g>
<!-- \\Iterator -->
<g id="node25" class="node"><title>\\Iterator</title>
<ellipse fill="none" stroke="black" cx="312" cy="-180" rx="55.8614" ry="18.3848"/>
<text text-anchor="middle" x="312" y="-176.4" font-family="Times Roman,serif" font-size="14.00" fill="gray">\\Iterator</text>
</g>
<!-- \\PGraph&#45;&gt;\\Iterator -->
<g id="edge21" class="edge"><title>\\PGraph&#45;&gt;\\Iterator</title>
<path fill="none" stroke="black" stroke-dasharray="1,5" d="M572.408,-338.086C550.299,-335.369 519.874,-328.811 498,-313 450.343,-278.553 474.763,-234.862 426,-202 411.95,-192.531 394.836,-186.909 378.186,-183.628"/>
<polygon fill="none" stroke="black" points="378.356,-180.106 367.91,-181.874 377.178,-187.006 378.356,-180.106"/>
</g>
<!-- \\ArrayAccess -->
<g id="node27" class="node"><title>\\ArrayAccess</title>
<ellipse fill="none" stroke="black" cx="312" cy="-126" rx="77.0746" ry="18.3848"/>
<text text-anchor="middle" x="312" y="-122.4" font-family="Times Roman,serif" font-size="14.00" fill="gray">\\ArrayAccess</text>
</g>
<!-- \\PGraph&#45;&gt;\\ArrayAccess -->
<g id="edge23" class="edge"><title>\\PGraph&#45;&gt;\\ArrayAccess</title>
<path fill="none" stroke="black" stroke-dasharray="1,5" d="M572.166,-339.029C549.629,-336.848 518.747,-330.551 498,-313 438.466,-262.636 486.129,-202.652 426,-153 416.627,-145.26 405.417,-139.662 393.738,-135.629"/>
<polygon fill="none" stroke="black" points="394.435,-132.182 383.848,-132.595 392.383,-138.874 394.435,-132.182"/>
</g>
<!-- \\Countable -->
<g id="node29" class="node"><title>\\Countable</title>
<ellipse fill="none" stroke="black" cx="312" cy="-72" rx="67.8823" ry="18.3848"/>
<text text-anchor="middle" x="312" y="-68.4" font-family="Times Roman,serif" font-size="14.00" fill="gray">\\Countable</text>
</g>
<!-- \\PGraph&#45;&gt;\\Countable -->
<g id="edge25" class="edge"><title>\\PGraph&#45;&gt;\\Countable</title>
<path fill="none" stroke="black" stroke-dasharray="1,5" d="M572.148,-339.61C549.296,-337.782 517.994,-331.675 498,-313 424.664,-244.502 500.146,-166.62 426,-99 415.377,-89.3119 401.929,-82.9155 388.025,-78.7315"/>
<polygon fill="none" stroke="black" points="388.919,-75.3476 378.356,-76.1751 387.13,-82.115 388.919,-75.3476"/>
</g>
<!-- \\PGraphVertex -->
<g id="node11" class="node"><title>\\PGraphVertex</title>
<a xlink:href="PGraphVertex.html" xlink:title="PGraphVertex" target="_parent">
<polygon fill="none" stroke="black" points="650,-304 552,-304 552,-268 650,-268 650,-304"/>
<text text-anchor="middle" x="601" y="-283.1" font-family="Courier,monospace" font-size="11.00">PGraphVertex</text>
</a>
</g>
<!-- \\PGraphLinkedList -->
<g id="node12" class="node"><title>\\PGraphLinkedList</title>
<a xlink:href="PGraphLinkedList.html" xlink:title="PGraphLinkedList" target="_parent">
<polygon fill="none" stroke="black" points="663,-250 539,-250 539,-214 663,-214 663,-250"/>
<text text-anchor="middle" x="601" y="-229.1" font-family="Courier,monospace" font-size="11.00">PGraphLinkedList</text>
</a>
</g>
<!-- \\SplDoublyLinkedList -->
<g id="node23" class="node"><title>\\SplDoublyLinkedList</title>
<ellipse fill="none" stroke="black" cx="312" cy="-18" rx="113.844" ry="18.3848"/>
<text text-anchor="middle" x="312" y="-14.4" font-family="Times Roman,serif" font-size="14.00" fill="gray">\SplDoublyLinkedList</text>
</g>
<!-- \\PGraphLinkedList&#45;&gt;\\SplDoublyLinkedList -->
<g id="edge19" class="edge"><title>\\PGraphLinkedList&#45;&gt;\\SplDoublyLinkedList</title>
<path fill="none" stroke="black" d="M589.473,-213.783C564.558,-175.993 501.773,-88.9448 426,-45 418.522,-40.663 410.384,-37.0218 402.012,-33.965"/>
<polygon fill="none" stroke="black" points="403.077,-30.6306 392.483,-30.7561 400.843,-37.2646 403.077,-30.6306"/>
</g>
</g>
</svg>
